<?xml version="1.0" standalone="no"?>
<!DOCTYPE svg PUBLIC "-//W3C//DTD SVG 1.1//EN" "http://www.w3.org/Graphics/SVG/1.1/DTD/svg11.dtd"> 
<svg width="3000" height="123" viewBox="0 0 3000 123" xmlns="http://www.w3.org/2000/svg" xmlns:xlink="http://www.w3.org/1999/xlink" version="1.1">
	<defs>
		<linearGradient id="normalGradient" x1="0%" y1="0%" x2="0%" y2="100%">
	    	<stop offset="0%" style="stop-color:#CCCCCC;stop-opacity:1" />
	    	<stop offset="100%" style="stop-color:#888888;stop-opacity:1" />
	    </linearGradient>
	    <linearGradient id="activeGradient" x1="0%" y1="0%" x2="0%" y2="100%">
	    	<stop offset="0%" style="stop-color:#FFFFFF;stop-opacity:1" />
	    	<stop offset="100%" style="stop-color:#CCCCCC;stop-opacity:1" />
	    </linearGradient>
	</defs>
	<!-- Play -->
	<g transform="translate(0,0)">
		<polygon points="0,0 0,20 19,10" fill="url(#normalGradient)" />
	</g>
	<!-- Play Active -->
	<g transform="translate(19,0)">
		<polygon points="0,0 0,20 19,10" fill="url(#activeGradient)"/>
	</g>
	<!-- Pause -->
	<g transform="translate(38,0)">
		<rect width="7" height="21" fill="url(#normalGradient)" />
		<rect x="12"  width="7" height="21" fill="url(#normalGradient)" />
	</g>
	<!-- Pause Active -->
	<g transform="translate(57,0)">
		<rect width="7" height="21" fill="url(#activeGradient)" />
		<rect x="12"  width="7" height="21" fill="url(#activeGradient)" />
	</g>
	<!-- Rewind -->
	<g transform="translate(76,0) scale(0.27,0.27)">
		<path d="M 20 50 a 30 30 0 1 0 30 -30" stroke-width="20" stroke="url(#normalGradient)" fill="none" />
		<polygon points="25,20 52,40 52,0" fill="#CCC"/>
	</g>
	<!-- Rewind Active-->
	<g transform="translate(103,0) scale(0.27,0.27)">
		<path d="M 20 50 a 30 30 0 1 0 30 -30" stroke-width="20" stroke="url(#activeGradient)" fill="none" />
		<polygon points="25,20 52,40 52,0" fill="#FFF"/>
	</g>
	<!-- Enter Full Screen -->
	<g transform="translate(130,0) scale(0.25,0.21)">
		<rect x="25" y="0" rx="5" ry="5" width="75" height="75" fill="url(#normalGradient)" />
		<rect x="4" y="46" rx="5" ry="5" width="50" height="50" stroke="url(#normalGradient)" style="stroke-width:8;fill:none;"/>
	</g>
	<!-- Enter Full Screen Active -->
	<g transform="translate(155,0) scale(0.25,0.21)">
		<rect x="25" y="0" rx="5" ry="5" width="75" height="75" fill="url(#activeGradient)" />
		<rect x="4" y="46" rx="5" ry="5" width="50" height="50" stroke="url(#activeGradient)" style="stroke-width:8;fill:none;"/>
	</g>
	<!-- Exit Full Screen -->
	<g transform="translate(180,0) scale(0.25,0.21)">
		<rect x="21" y="4" rx="5" ry="5" width="75" height="75" style="stroke:#888;stroke-width:8;fill:none;" />
		<rect x="0" y="50" rx="5" ry="5" width="50" height="50" style="fill:#888;" />
	</g>
	<!-- Exit Full Screen -->
	<g transform="translate(205,0) scale(0.25,0.21)">
		<rect x="21" y="4" rx="5" ry="5" width="75" height="75" style="stroke:#FFF;stroke-width:8;fill:none;" />
		<rect x="0" y="50" rx="5" ry="5" width="50" height="50" style="fill:#FFF;" />
	</g>
	<!-- Play Icon -->
	<g transform="translate(230,0) scale(1.18,1.18)">
		<circle cx="50" cy="50" r="45" stroke-width="5" stroke="#888" fill="none" />
		<polygon points="35,25 35,75 75,50" fill="#888" />
	</g>
	<!-- Play Icon Active -->
	<g transform="translate(348,0) scale(1.18,1.18)">
		<circle cx="50" cy="50" r="45" stroke-width="5" stroke="#FFF" fill="none" />
		<polygon points="35,25 35,75 75,50" fill="#FFF" />
	</g>
	<!-- Replay -->
	<g transform="translate(466,0) scale(0.71,0.71)">
		<path d="M 10 25 a 7 7 0 1 0 7 -7" stroke-width="4" stroke="#888" fill="none" />
		<polygon points="12,18 17.2,23.5 17.2,12.5" fill="#888"/>
	</g>
	<!-- Replay Actice -->
	<g transform="translate(537,0) scale(0.71,0.71)">
		<path d="M 10 25 a 7 7 0 1 0 7 -7" stroke-width="4" stroke="#FFF" fill="none" />
		<polygon points="12,18 17.2,23.5 17.2,12.5" fill="#FFF"/>
	</g>
	<!-- Volume -->
	<g transform="translate(590,0) ">
		<polygon fill="url(#normalGradient)" points="3.742,6.904 -0.045,6.877 -0.045,12.911 3.742,12.911 8.529,16.951 8.529,2.84 "/>
		<path fill="url(#normalGradient)" d="M14.258,0.128l-1.16,1.984c2.11,0.987,3.71,4.261,3.71,8.025c0,3.73-1.571,6.982-3.657,7.998
			l1.134,1.993c2.726-1.511,4.668-5.414,4.668-9.991C18.955,5.543,17,1.628,14.258,0.128z"/>
		<path fill="url(#normalGradient)" d="M12.01,4.035L10.9,5.934c0.915,0.887,1.535,2.418,1.535,4.121c0,1.652-0.584,3.145-1.456,4.042
			l1.096,1.922c1.479-1.271,2.459-3.467,2.459-5.964C14.534,7.521,13.526,5.297,12.01,4.035z"/>
	</g>
	<!-- Volume Active -->
	<g transform="translate(650,0) ">
		<polygon fill="url(#activeGradient)" points="3.742,6.904 -0.045,6.877 -0.045,12.911 3.742,12.911 8.529,16.951 8.529,2.84 "/>
		<path fill="url(#activeGradient)" d="M14.258,0.128l-1.16,1.984c2.11,0.987,3.71,4.261,3.71,8.025c0,3.73-1.571,6.982-3.657,7.998
			l1.134,1.993c2.726-1.511,4.668-5.414,4.668-9.991C18.955,5.543,17,1.628,14.258,0.128z"/>
		<path fill="url(#activeGradient)" d="M12.01,4.035L10.9,5.934c0.915,0.887,1.535,2.418,1.535,4.121c0,1.652-0.584,3.145-1.456,4.042
			l1.096,1.922c1.479-1.271,2.459-3.467,2.459-5.964C14.534,7.521,13.526,5.297,12.01,4.035z"/>
	</g>
	<!-- Mute -->
	<g transform="translate(710,0) ">
		<polygon fill="url(#normalGradient)" points="3.742,6.904 -0.045,6.877 -0.045,12.911 3.742,12.911 8.529,16.951 8.529,2.84 "/>
		<path fill="url(#normalGradient)" d="M14.258,0.128l-1.16,1.984c2.11,0.987,3.71,4.261,3.71,8.025c0,3.73-1.571,6.982-3.657,7.998 l1.134,1.993c2.726-1.511,4.668-5.414,4.668-9.991C18.955,5.543,17,1.628,14.258,0.128z"/>
		<path fill="url(#normalGradient)" d="M12.01,4.035L10.9,5.934c0.915,0.887,1.535,2.418,1.535,4.121c0,1.652-0.584,3.145-1.456,4.042 l1.096,1.922c1.479-1.271,2.459-3.467,2.459-5.964C14.534,7.521,13.526,5.297,12.01,4.035z"/>
		<line fill="none" stroke="#E93A00" stroke-width="2" x1="17.688" y1="0.875" x2="1" y2="18.935"/>
	</g>
	<!-- Mute Active -->
	<g transform="translate(770,0) ">
		<polygon fill="url(#activeGradient)" points="3.742,6.904 -0.045,6.877 -0.045,12.911 3.742,12.911 8.529,16.951 8.529,2.84 "/>
		<path fill="url(#activeGradient)" d="M14.258,0.128l-1.16,1.984c2.11,0.987,3.71,4.261,3.71,8.025c0,3.73-1.571,6.982-3.657,7.998 l1.134,1.993c2.726-1.511,4.668-5.414,4.668-9.991C18.955,5.543,17,1.628,14.258,0.128z"/>
		<path fill="url(#activeGradient)" d="M12.01,4.035L10.9,5.934c0.915,0.887,1.535,2.418,1.535,4.121c0,1.652-0.584,3.145-1.456,4.042 l1.096,1.922c1.479-1.271,2.459-3.467,2.459-5.964C14.534,7.521,13.526,5.297,12.01,4.035z"/>
		<line fill="none" stroke="#E93A00" stroke-width="2" x1="17.688" y1="0.875" x2="1" y2="18.935"/>
	</g>
	
	<!-- PlayList -->
	<g transform="translate(810,0) ">
		<rect x="1" y="0" fill="url(#normalGradient)" width="4" height="4"/>
		<rect x="7" y="0" fill="url(#normalGradient)" width="18" height="4"/>
		<rect x="1" y="7" fill="url(#normalGradient)" width="4" height="4"/>
		<rect x="7" y="7" fill="url(#normalGradient)" width="18" height="4"/>
		<rect x="1" y="14" fill="url(#normalGradient)" width="4" height="4"/>
		<rect x="7" y="14" fill="url(#normalGradient)" width="18" height="4"/>
	</g>
	
	
	<!-- PlayList Active -->
	<g transform="translate(850,0) ">
		<rect x="1" y="0" fill="url(#activeGradient)" width="4" height="4"/>
		<rect x="7" y="0" fill="url(#activeGradient)" width="18" height="4"/>
		<rect x="1" y="7" fill="url(#activeGradient)" width="4" height="4"/>
		<rect x="7" y="7" fill="url(#activeGradient)" width="18" height="4"/>
		<rect x="1" y="14" fill="url(#activeGradient)" width="4" height="4"/>
		<rect x="7" y="14" fill="url(#activeGradient)" width="18" height="4"/>
	</g>
	
	<g transform="translate(900,0) ">
		<path fill="url(#normalGradient)" d="m 17.258437,7.371725 -0.34061,-0.80753 C 18.084303,3.9277187 18.006955,3.8493664 17.78043,3.6206698 l -1.490157,-1.4558941 -0.147881,-0.124604 -0.172627,0 c -0.09104,0 -0.362824,0 -2.628007,1.0274083 L 12.508074,2.7314397 c -1.077486,-2.671032 -1.187987,-2.671032 -1.503497,-2.671032 l -2.102136,0 c -0.315161,0 -0.437648,-4e-4 -1.436966,2.680552 L 6.635377,3.077984 C 5.104607,2.4316237 4.206858,2.1044157 3.964581,2.1044157 l -0.198722,0.0062 -1.602831,1.5715061 C 1.919811,3.9108187 1.834938,3.9914627 3.068301,6.587145 L 2.728926,7.391815 C 0,8.446795 0,8.549125 0,8.871925 l 0,2.06117 c 0,0.32333 0,0.43729 2.738096,1.4181 l 0.339315,0.80329 c -1.166299,2.63506 -1.08795,2.71418 -0.861367,2.9407 l 1.490157,1.45765 0.148234,0.12743 0.173449,0 c 0.08963,0 0.358065,0 2.62642,-1.02953 l 0.832215,0.33844 c 1.077663,2.67068 1.188341,2.67003 1.504554,2.67003 l 2.102489,0 c 0.321506,0 0.435532,0 1.437846,-2.67955 l 0.83433,-0.33738 c 1.52901,0.64654 2.424702,0.97481 2.665447,0.97481 l 0.200075,-0.006 1.615117,-1.58115 c 0.229756,-0.23187 0.310222,-0.31204 -0.916265,-2.89697 l 0.337022,-0.80534 C 20,11.271945 20,11.161085 20,10.845575 l 0,-2.05887 c -3e-4,-0.32439 -3e-4,-0.43765 -2.741563,-1.41498 z M 9.9995,13.288615 c -1.927746,0 -3.497427,-1.53917 -3.497427,-3.43042 0,-1.88984 1.56974,-3.42755 3.497427,-3.42755 1.926689,0 3.493079,1.53806 3.493079,3.42755 -3.6e-4,1.89125 -1.566743,3.43042 -3.493079,3.43042 z"/>
	</g>
	
	<g transform="translate(950,0) ">
		<path fill="url(#activeGradient)" d="m 17.258437,7.371725 -0.34061,-0.80753 C 18.084303,3.9277187 18.006955,3.8493664 17.78043,3.6206698 l -1.490157,-1.4558941 -0.147881,-0.124604 -0.172627,0 c -0.09104,0 -0.362824,0 -2.628007,1.0274083 L 12.508074,2.7314397 c -1.077486,-2.671032 -1.187987,-2.671032 -1.503497,-2.671032 l -2.102136,0 c -0.315161,0 -0.437648,-4e-4 -1.436966,2.680552 L 6.635377,3.077984 C 5.104607,2.4316237 4.206858,2.1044157 3.964581,2.1044157 l -0.198722,0.0062 -1.602831,1.5715061 C 1.919811,3.9108187 1.834938,3.9914627 3.068301,6.587145 L 2.728926,7.391815 C 0,8.446795 0,8.549125 0,8.871925 l 0,2.06117 c 0,0.32333 0,0.43729 2.738096,1.4181 l 0.339315,0.80329 c -1.166299,2.63506 -1.08795,2.71418 -0.861367,2.9407 l 1.490157,1.45765 0.148234,0.12743 0.173449,0 c 0.08963,0 0.358065,0 2.62642,-1.02953 l 0.832215,0.33844 c 1.077663,2.67068 1.188341,2.67003 1.504554,2.67003 l 2.102489,0 c 0.321506,0 0.435532,0 1.437846,-2.67955 l 0.83433,-0.33738 c 1.52901,0.64654 2.424702,0.97481 2.665447,0.97481 l 0.200075,-0.006 1.615117,-1.58115 c 0.229756,-0.23187 0.310222,-0.31204 -0.916265,-2.89697 l 0.337022,-0.80534 C 20,11.271945 20,11.161085 20,10.845575 l 0,-2.05887 c -3e-4,-0.32439 -3e-4,-0.43765 -2.741563,-1.41498 z M 9.9995,13.288615 c -1.927746,0 -3.497427,-1.53917 -3.497427,-3.43042 0,-1.88984 1.56974,-3.42755 3.497427,-3.42755 1.926689,0 3.493079,1.53806 3.493079,3.42755 -3.6e-4,1.89125 -1.566743,3.43042 -3.493079,3.43042 z"/>
	</g>
	
	<g transform="translate(1000,-420) ">
		<path fill="url(#normalGradient)" d="m 10.294221,421.71696 c -0.274372,-0.27437 -0.6964823,-0.27437 -0.9708542,0 l -5.7407035,5.7407 -2.4060301,-2.38492 c -0.27437189,-0.27437 -0.69648245,-0.27437 -0.97085431,0 -0.27437185,0.27437 -0.27437185,0.69648 0,0.97085 l 2.89145731,2.87035 c 0.1266331,0.12664 0.3165829,0.21106 0.4854271,0.21106 0.1688442,0 0.358794,-0.0844 0.4854272,-0.21106 l 6.2261305,-6.20502 c 0.274372,-0.27437 0.274372,-0.71759 0,-0.99196 z"/>
    </g>
	<g transform="translate(1050,-420) ">
		<path fill="url(#activeGradient)" d="m 10.294221,421.71696 c -0.274372,-0.27437 -0.6964823,-0.27437 -0.9708542,0 l -5.7407035,5.7407 -2.4060301,-2.38492 c -0.27437189,-0.27437 -0.69648245,-0.27437 -0.97085431,0 -0.27437185,0.27437 -0.27437185,0.69648 0,0.97085 l 2.89145731,2.87035 c 0.1266331,0.12664 0.3165829,0.21106 0.4854271,0.21106 0.1688442,0 0.358794,-0.0844 0.4854272,-0.21106 l 6.2261305,-6.20502 c 0.274372,-0.27437 0.274372,-0.71759 0,-0.99196 z"/>
    </g>
	
</svg>