<?xml version="1.0" encoding="UTF-8"?>
<svg width="466px" height="151px" viewBox="0 0 466 151" version="1.1" xmlns="http://www.w3.org/2000/svg" xmlns:xlink="http://www.w3.org/1999/xlink">
    <!-- Generator: Sketch 48.2 (47327) - http://www.bohemiancoding.com/sketch -->
    <title>logo_typo_long</title>
    <desc>Created with Sketch.</desc>
    <defs></defs>
    <g id="11_logo_test03_rift-copy-2" stroke="none" stroke-width="1" fill="none" fill-rule="evenodd" transform="translate(-609.000000, -575.000000)">
        <g id="logo_typo_long" transform="translate(609.000000, 575.000000)">
            <path d="M195.22,66 L195.22,66 C194.325299,66 193.6,65.2747013 193.6,64.38 L193.6,63.6 C193.6,58.98 191.92,56.94 187.42,56.94 C182.92,56.94 181.24,58.98 181.24,63.6 L181.24,66.54 C181.24,69.66 182.32,70.5 185.5,72.18 L191.92,75.72 C194.86,77.28 196.96,79.62 196.96,82.8 L196.96,88.2 C196.96,94.2 193.9,96.96 187.54,96.96 L187.42,96.96 C181.06,96.96 178,94.26 178,88.2 L178,85.98 C178,85.0852987 178.725299,84.36 179.62,84.36 L179.62,84.36 C180.514701,84.36 181.24,85.0852987 181.24,85.98 L181.24,87.24 C181.24,91.8 182.92,94.02 187.48,94.02 C192.04,94.02 193.72,91.8 193.72,87.24 L193.72,83.88 C193.72,80.76 192.46,79.68 189.28,77.88 L182.98,74.46 C179.5,72.48 178,70.86 178,67.5 L178,62.64 C178,56.88 181.6,54 187.36,54 L187.48,54 C193.24,54 196.84,56.88 196.84,62.64 L196.84,64.38 C196.84,65.2747013 196.114701,66 195.22,66 Z M223.48,55.98 L223.48,55.98 C223.48,56.8084271 222.808427,57.48 221.98,57.48 L215.56,57.48 L215.56,94.86 C215.56,95.7547013 214.834701,96.48 213.94,96.48 L213.94,96.48 C213.045299,96.48 212.32,95.7547013 212.32,94.86 L212.32,57.48 L205.9,57.48 C205.071573,57.48 204.4,56.8084271 204.4,55.98 L204.4,55.98 C204.4,55.1515729 205.071573,54.48 205.9,54.48 L221.98,54.48 C222.808427,54.48 223.48,55.1515729 223.48,55.98 Z M251.32,96.48 L251.32,96.48 C250.272371,96.48 249.333608,95.8329535 248.960792,94.8539061 L242.68,78.36 L235.36,78.36 L235.36,94.86 C235.36,95.7547013 234.634701,96.48 233.74,96.48 L233.74,96.48 C232.845299,96.48 232.12,95.7547013 232.12,94.86 L232.12,56.48 C232.12,55.3754305 233.01543,54.48 234.12,54.48 L242.02,54.48 C248.38,54.48 251.62,57.48 251.62,63.36 L251.62,69.48 C251.62,74.04 249.7,76.86 245.86,77.88 L252.43187,94.8573315 C252.669574,95.4714005 252.36447,96.161899 251.750401,96.3996032 C251.613127,96.4527415 251.4672,96.48 251.32,96.48 Z M241.78,75.42 C246.52,75.42 248.38,73.38 248.38,68.46 L248.38,64.44 C248.38,59.46 246.52,57.48 241.78,57.48 L235.36,57.48 L235.36,75.42 L241.78,75.42 Z M277.96,96.48 L264.78,96.48 C263.67543,96.48 262.78,95.5845695 262.78,94.48 L262.78,56.48 C262.78,55.3754305 263.67543,54.48 264.78,54.48 L277.78,54.48 C278.608427,54.48 279.28,55.1515729 279.28,55.98 L279.28,55.98 C279.28,56.8084271 278.608427,57.48 277.78,57.48 L266.02,57.48 L266.02,73.68 L275.92,73.68 C276.748427,73.68 277.42,74.3515729 277.42,75.18 L277.42,75.18 C277.42,76.0084271 276.748427,76.68 275.92,76.68 L266.02,76.68 L266.02,93.48 L277.96,93.48 C278.788427,93.48 279.46,94.1515729 279.46,94.98 L279.46,94.98 C279.46,95.8084271 278.788427,96.48 277.96,96.48 Z M305.744254,94.8380971 L303.76,85.68 L292.48,85.68 L290.48304,94.8967365 C290.282846,95.8207095 289.465412,96.48 288.52,96.48 L288.52,96.48 C287.80274,96.48 287.221287,95.8985464 287.221287,95.1812871 C287.221287,95.0862673 287.231715,94.9915345 287.252384,94.8987899 L295.855411,56.2954635 C296.091839,55.2345668 297.033077,54.48 298.12,54.48 L298.12,54.48 C299.207587,54.48 300.150066,55.233458 300.389526,56.2943562 L309.090105,94.8412267 C309.253421,95.5647779 308.79926,96.2837258 308.075709,96.4470416 C307.978664,96.4689461 307.879486,96.48 307.78,96.48 L307.78,96.48 C306.799572,96.48 305.951863,95.7962914 305.744254,94.8380971 Z M293.14,82.74 L303.1,82.74 L298.12,59.58 L293.14,82.74 Z M343,62.7 L333.562373,86.5353148 C333.355725,87.0572163 332.851323,87.4 332.29,87.4 L332.29,87.4 C331.728457,87.4 331.223636,87.0577051 331.015813,86.5360351 L321.52,62.7 L321.52,94.95 C321.52,95.7949957 320.834995,96.48 319.99,96.48 L319.99,96.48 C319.145004,96.48 318.46,95.7949957 318.46,94.95 L318.46,56.07 C318.46,55.1918672 319.171867,54.48 320.05,54.48 L320.05,54.48 C321.008708,54.48 321.869207,55.0682119 322.217291,55.9614972 L332.2,81.58 L342.264027,56.0430026 C342.635701,55.0998968 343.546298,54.48 344.56,54.48 L344.56,54.48 C345.487838,54.48 346.24,55.2321616 346.24,56.16 L346.24,94.86 C346.24,95.7547013 345.514701,96.48 344.62,96.48 L344.62,96.48 C343.725298,96.48 343,95.7547013 343,94.86 L343,62.7 Z M376.959999,96.48 L376.959999,96.48 C375.912371,96.48 374.973608,95.8329535 374.600791,94.8539061 L368.319999,78.36 L360.999999,78.36 L360.999999,94.86 C360.999999,95.7547013 360.274701,96.48 359.379999,96.48 L359.379999,96.48 C358.485298,96.48 357.759999,95.7547013 357.759999,94.86 L357.759999,56.48 C357.759999,55.3754305 358.65543,54.48 359.759999,54.48 L367.659999,54.48 C374.019999,54.48 377.259999,57.48 377.259999,63.36 L377.259999,69.48 C377.259999,74.04 375.339999,76.86 371.499999,77.88 L378.07187,94.8573315 C378.309574,95.4714005 378.00447,96.161899 377.390401,96.3996032 C377.253127,96.4527415 377.107199,96.48 376.959999,96.48 Z M367.419999,75.42 C372.159999,75.42 374.019999,73.38 374.019999,68.46 L374.019999,64.44 C374.019999,59.46 372.159999,57.48 367.419999,57.48 L360.999999,57.48 L360.999999,75.42 L367.419999,75.42 Z M387.819999,62.88 C387.819999,56.94 391.059999,54 397.419999,54 L397.899999,54 C404.259999,54 407.499999,57 407.499999,62.88 L407.499999,88.08 C407.499999,93.96 404.259999,96.96 397.899999,96.96 L397.419999,96.96 C391.059999,96.96 387.819999,93.96 387.819999,88.08 L387.819999,62.88 Z M391.059999,87 C391.059999,91.98 392.919999,93.96 397.659999,93.96 C402.399999,93.96 404.259999,91.98 404.259999,87 L404.259999,63.96 C404.259999,58.98 402.399999,57 397.659999,57 C392.919999,57 391.059999,58.98 391.059999,63.96 L391.059999,87 Z M418.539999,62.88 C418.539999,56.94 421.779999,54 428.139999,54 L428.619999,54 C434.979999,54 438.219999,57 438.219999,62.88 L438.219999,88.08 C438.219999,93.96 434.979999,96.96 428.619999,96.96 L428.139999,96.96 C421.779999,96.96 418.539999,93.96 418.539999,88.08 L418.539999,62.88 Z M421.779999,87 C421.779999,91.98 423.639999,93.96 428.379999,93.96 C433.119999,93.96 434.979999,91.98 434.979999,87 L434.979999,63.96 C434.979999,58.98 433.119999,57 428.379999,57 C423.639999,57 421.779999,58.98 421.779999,63.96 L421.779999,87 Z M465.459999,55.98 L465.459999,55.98 C465.459999,56.8084271 464.788426,57.48 463.959999,57.48 L457.539999,57.48 L457.539999,94.86 C457.539999,95.7547013 456.8147,96.48 455.919999,96.48 L455.919999,96.48 C455.025298,96.48 454.299999,95.7547013 454.299999,94.86 L454.299999,57.48 L447.879999,57.48 C447.051572,57.48 446.379999,56.8084271 446.379999,55.98 L446.379999,55.98 C446.379999,55.1515729 447.051572,54.48 447.879999,54.48 L463.959999,54.48 C464.788426,54.48 465.459999,55.1515729 465.459999,55.98 Z" id="Streamroot" fill="#0A3758"></path>
            <g id="logo">
                <path d="M56.0964605,124.863552 C53.7003892,125.226909 51.2471203,125.415282 48.75,125.415282 C21.8261184,125.415282 0,103.516652 0,76.5033223 C0,49.4899926 21.8261184,27.5913621 48.75,27.5913621 C50.9236647,27.5913621 53.0641025,27.7340959 55.1625107,28.0107314 C62.9741635,11.4529451 79.7790212,0 99.25,0 C126.173882,0 148,21.8986305 148,48.9119601 C148,58.715753 145.125194,67.8458683 140.175235,75.4999969 C145.125193,83.1541292 148,92.2842456 148,102.08804 C148,129.10137 126.173882,151 99.25,151 C80.5225965,151 64.2615699,140.405103 56.0964605,124.863552 Z" id="Combined-Shape" fill="#12A5ED"></path>
                <path d="M92.9520252,89.945603 L100.1325,101.436765 L110.961104,94.6703021 C110.345406,92.7534683 111.083398,90.5886715 112.874126,89.4697008 C114.988766,88.1483269 117.770659,88.7857201 119.087657,90.8933582 C120.404656,93.0009963 119.758039,95.7807598 117.643399,97.1021337 C116.769065,97.6484784 115.78066,97.8599619 114.828895,97.7711151 L115.777571,124.937646 C117.333073,124.883686 118.871949,125.635764 119.753895,127.047172 C121.070894,129.15481 120.424277,131.934574 118.309637,133.255947 C116.194997,134.577321 113.413104,133.939928 112.096105,131.83229 C111.259601,130.493603 111.215273,128.883761 111.836133,127.548691 L87.379898,114.545081 C87.0602092,115.5101 86.4138492,116.374253 85.483079,116.955863 C83.3684388,118.277237 80.5865459,117.639843 79.2695474,115.532205 C77.952549,113.424567 78.5991654,110.644804 80.7138056,109.32343 C82.5668147,108.165541 84.9321805,108.511712 86.3752716,110.033235 L98.0053363,102.765964 L90.8041037,91.2415831 C88.2393843,92.5631397 85.3315027,93.3089701 82.25,93.3089701 C79.6440618,93.3089701 77.1622904,92.7755822 74.9072227,91.8116836 L67.3898021,105.373469 C68.9573245,106.742047 69.4164938,109.058613 68.3700632,110.946424 C67.1651749,113.1201 64.4204531,113.902212 62.2395555,112.693321 C60.0586579,111.48443 59.2674461,108.742317 60.4723344,106.568641 C61.4136277,104.870503 63.2947094,104.021662 65.1125595,104.307929 L72.6710214,90.6721025 C67.668712,87.6836226 64.1701645,82.4256168 63.5863382,76.3137321 L51.6110299,76.3137321 L51.6110299,89.6138307 C53.3588185,90.2336377 54.6110299,91.906034 54.6110299,93.8718717 C54.6110299,96.3654098 52.5963113,98.3868218 50.1110299,98.3868218 C47.6257485,98.3868218 45.6110299,96.3654098 45.6110299,93.8718717 C45.6110299,92.6633275 46.0842982,91.5656884 46.85503,90.755343 L23.4028265,77.2152071 C22.6029933,78.4674967 21.203726,79.2974333 19.6112584,79.2974333 C17.125977,79.2974333 15.1112584,77.2760213 15.1112584,74.7824832 C15.1112584,72.288945 17.125977,70.267533 19.6112584,70.267533 C21.2199869,70.267533 22.6315495,71.1145054 23.4271402,72.3882529 L46.8659028,58.855877 C46.0888414,58.0444566 45.6111822,56.942253 45.6111822,55.7281154 C45.6111822,53.2345773 47.6259008,51.2131653 50.1111822,51.2131653 C52.5964636,51.2131653 54.6111822,53.2345773 54.6111822,55.7281154 C54.6111822,57.6940102 53.358898,59.3664465 51.6110299,59.9862103 L51.6110299,73.8054265 L63.512423,73.8054265 C63.723097,67.9534608 66.5978462,62.7830558 70.9563177,59.4784859 L64.2023301,48.6698464 C62.2683341,49.319979 60.0740578,48.592455 58.9489312,46.7918761 C57.6319327,44.684238 58.2785492,41.9044745 60.3931894,40.5831006 C62.5078297,39.2617267 65.2897225,39.8991198 66.606721,42.006758 C67.6551756,43.684636 67.4591585,45.788484 66.2687138,47.2433783 L73.052363,58.0994865 C75.7697845,56.5617652 78.90777,55.6843854 82.25,55.6843854 C85.3673167,55.6843854 88.3069529,56.4476529 90.8933876,57.7980837 L95.8726786,48.8152049 L84.6928624,42.6181316 C83.3276628,44.1886133 81.0013703,44.6454053 79.1025045,43.5928468 C76.9216069,42.3839556 76.130395,39.6418429 77.3352834,37.4681669 C78.5401717,35.2944908 81.2848935,34.5123782 83.465791,35.7212695 C84.3127758,36.1907608 84.9501576,36.891504 85.3424152,37.7003922 L108.92763,23.5289656 C108.138746,22.1979546 108.055945,20.4984061 108.858297,19.0509256 C110.063185,16.8772496 112.807907,16.095137 114.988805,17.3040282 C117.169702,18.5129195 117.960914,21.2550321 116.756026,23.4287082 C115.94961,24.8835199 114.453436,25.7149888 112.898184,25.7434009 L113.377812,53.2212544 C114.539435,52.8292479 115.857469,52.9094572 117.016312,53.551814 C119.197209,54.7607053 119.988421,57.5028179 118.783533,59.676494 C117.578645,61.8501701 114.833923,62.6322827 112.653025,61.4233914 C110.969259,60.4900647 110.113835,58.6428401 110.36582,56.8488841 L98.0664921,50.0312556 L93.0358964,59.1066905 C97.6778028,62.3875925 100.768826,67.7290973 100.987577,73.8054265 L115.222538,73.8054265 C115.677267,71.79478 117.469443,70.2937986 119.61103,70.2937986 C122.096311,70.2937986 124.11103,72.3152106 124.11103,74.8087487 C124.11103,77.3022869 122.096311,79.3236989 119.61103,79.3236989 C117.651702,79.3236989 115.984843,78.0673273 115.367088,76.3137321 L100.913662,76.3137321 C100.374582,81.9571811 97.3504475,86.8726238 92.9520252,89.945603 Z M112.29297,96.7860058 L87.9330515,112.007773 L113.295448,125.493198 L112.29297,96.7860058 Z M85.7728076,40.3583698 L110.895988,54.284376 L110.394673,25.5640607 L85.7728076,40.3583698 Z M49.1110299,89.1710939 L49.1110299,60.4464036 L24.2347184,74.8087487 L49.1110299,89.1710939 Z M76.5648984,82.5233997 C76.6161679,82.5233997 76.652789,82.5087026 76.7040585,82.486657 L91.0741757,75.2777277 C91.184039,75.2262879 91.249957,75.1234082 91.249957,74.9984828 C91.249957,74.8735574 91.184039,74.7706777 91.0741757,74.7192378 L76.7040585,67.5103086 C76.5941953,67.4588687 76.4916562,67.4588687 76.3891171,67.5250057 C76.3012265,67.5764456 76.249957,67.6793253 76.249957,67.7895536 L76.249957,82.207412 C76.249957,82.3176403 76.3012265,82.42052 76.3891171,82.4719599 C76.4403867,82.5087026 76.5136288,82.5233997 76.5648984,82.5233997 Z" id="Combined-Shape" fill="#FFFFFF"></path>
            </g>
        </g>
    </g>
</svg>